<svg xmlns="http://www.w3.org/2000/svg" viewBox="0 0 64 64">
  <circle cx="32" cy="32" r="30" fill="#e0f0ff" stroke="#0066cc" stroke-width="2" />
  <g fill="none" stroke="#0066cc" stroke-width="2">
    <circle cx="26" cy="20" r="5" />
    <circle cx="38" cy="20" r="5" />
    <circle cx="20" cy="32" r="5" />
    <circle cx="32" cy="32" r="5" />
    <circle cx="44" cy="32" r="5" />
    <circle cx="26" cy="44" r="5" />
    <circle cx="38" cy="44" r="5" />
    <line x1="26" y1="20" x2="20" y2="32" />
    <line x1="26" y1="20" x2="32" y2="32" />
    <line x1="38" y1="20" x2="32" y2="32" />
    <line x1="38" y1="20" x2="44" y2="32" />
    <line x1="20" y1="32" x2="26" y2="44" />
    <line x1="32" y1="32" x2="26" y2="44" />
    <line x1="32" y1="32" x2="38" y2="44" />
    <line x1="44" y1="32" x2="38" y2="44" />
  </g>
  <g fill="#ff6600" stroke="#ff6600" stroke-width="1">
    <circle cx="26" cy="20" r="2" />
    <circle cx="38" cy="20" r="2" />
    <circle cx="20" cy="32" r="2" />
    <circle cx="32" cy="32" r="2" />
    <circle cx="44" cy="32" r="2" />
    <circle cx="26" cy="44" r="2" />
    <circle cx="38" cy="44" r="2" />
  </g>
</svg> 